<?xml version="1.0" standalone="no"?>
<!DOCTYPE svg PUBLIC "-//W3C//DTD SVG 20010904//EN"
 "http://www.w3.org/TR/2001/REC-SVG-20010904/DTD/svg10.dtd">
<svg version="1.0" xmlns="http://www.w3.org/2000/svg"
 width="190.000000pt" height="190.000000pt" viewBox="0 0 190.000000 190.000000"
 preserveAspectRatio="xMidYMid meet">
<metadata>
Created by potrace 1.11, written by Peter Selinger 2001-2013
</metadata>
<g transform="translate(0.000000,190.000000) scale(0.100000,-0.100000)"
fill="#000000" stroke="none">
<path d="M1109 1753 c-9 -2 -24 -19 -34 -37 -26 -48 -109 -113 -221 -170 -113
-59 -129 -76 -95 -103 l22 -18 -43 3 c-29 3 -48 -1 -56 -10 -25 -31 98 -211
131 -192 8 5 9 4 2 -4 -5 -5 -28 -13 -50 -16 -22 -3 -49 -7 -60 -9 -11 -3 -50
-10 -87 -17 -74 -13 -85 -28 -51 -69 38 -44 96 -55 197 -37 l29 5 -29 -32
c-16 -17 -36 -38 -44 -47 -9 -8 -44 -45 -77 -82 l-62 -66 -15 23 c-20 30 -63
27 -91 -8 -19 -25 -110 -153 -130 -185 -5 -9 -16 -22 -23 -30 -6 -7 -25 -33
-41 -56 -17 -24 -42 -51 -56 -60 -22 -15 -25 -22 -19 -54 3 -20 21 -69 39
-109 29 -62 38 -73 67 -81 53 -15 80 10 94 87 7 35 82 257 106 313 16 38 26
48 51 54 42 9 97 35 121 57 11 9 23 17 27 17 4 0 14 6 21 13 7 6 29 24 48 39
19 14 60 49 90 77 30 28 57 51 61 51 3 0 5 -24 3 -52 -4 -60 11 -125 33 -150
9 -10 12 -18 7 -19 -5 0 -18 -2 -29 -4 -11 -2 -36 -6 -55 -8 -19 -3 -65 -10
-101 -16 -37 -6 -89 -9 -116 -6 -85 10 -111 -10 -90 -65 29 -77 45 -132 50
-171 21 -176 50 -287 75 -290 59 -8 82 0 94 32 4 9 19 16 40 17 18 1 44 4 57
6 28 6 190 19 245 20 l39 1 24 -69 c12 -39 29 -73 35 -78 46 -29 128 16 178
98 40 66 50 102 55 199 9 160 14 196 35 222 28 36 25 58 -12 86 -92 68 -173
89 -273 70 -38 -7 -88 -16 -110 -19 -22 -3 -46 -7 -52 -9 -17 -6 -16 1 4 32
10 14 18 36 19 47 4 45 17 151 19 154 1 1 37 -29 81 -68 100 -88 162 -123 223
-123 42 -1 127 8 176 17 11 2 40 6 65 10 59 9 88 30 74 54 -11 16 -82 37 -263
76 -72 16 -231 90 -231 108 0 4 -5 8 -11 8 -5 0 -26 11 -45 24 l-35 23 58 11
c32 6 81 14 108 17 28 4 61 9 75 11 14 3 45 7 70 10 98 13 123 48 70 99 -29
28 -43 34 -85 36 -25 1 -102 -9 -125 -16 -10 -3 -27 -7 -37 -9 -10 -2 -53 -13
-95 -24 -43 -11 -78 -16 -78 -11 0 5 9 9 20 9 22 0 171 68 181 83 3 5 9 8 13
8 8 -2 106 48 106 54 0 24 -26 55 -61 72 -124 60 -174 52 -185 -28 -5 -34 -15
-59 -34 -79 -15 -16 -30 -27 -32 -24 -3 2 -3 22 -1 44 4 29 -1 47 -16 69 l-21
29 77 32 c185 75 203 88 168 124 -20 20 -115 66 -150 72 -16 3 -31 6 -34 8 -3
1 -13 1 -22 -1z m-185 -309 c3 -9 6 -60 6 -115 0 -93 -1 -99 -20 -99 -18 0
-19 3 -9 23 22 40 12 79 -31 119 -22 20 -49 40 -60 43 -11 4 -20 11 -20 17 0
6 2 9 6 6 3 -3 26 0 52 7 63 18 69 18 76 -1z m360 -732 c12 -3 2 -300 -10
-312 -8 -8 -20 -7 -40 1 -16 6 -55 11 -86 11 l-58 -1 0 40 c0 38 6 46 42 53
50 10 70 22 84 47 13 26 13 32 -2 54 -9 14 -24 25 -33 24 -9 -1 -33 -1 -54 0
-38 1 -38 1 -35 38 4 35 6 37 43 41 22 2 41 5 43 6 2 3 90 1 106 -2z m-366
-87 c1 -46 1 -46 -43 -45 -3 0 -22 -7 -42 -15 -20 -8 -37 -14 -38 -13 -6 7
-11 98 -6 99 21 2 55 10 58 13 2 1 18 3 37 4 33 1 33 1 34 -43z m-44 -149 c44
-3 49 -8 52 -51 3 -37 0 -39 -68 -49 -21 -3 -39 -3 -39 2 -1 4 -3 16 -4 27 -2
11 -6 40 -10 65 -7 44 -6 44 14 26 11 -10 36 -19 55 -20z"/>
<path d="M358 1613 c-48 -11 -18 -73 87 -176 71 -69 153 -70 174 -3 22 68 -5
118 -84 155 -39 18 -140 32 -177 24z"/>
<path d="M183 1162 c-46 -7 -22 -70 54 -143 106 -102 192 -109 212 -17 7 28 4
43 -9 66 -38 62 -165 108 -257 94z"/>
</g>
</svg>
